<svg xmlns="http://www.w3.org/2000/svg" viewBox="0 0 90 35.82"><defs><style>.cls-1{fill:#1a1717;fill-rule:evenodd;}</style></defs><title>melon_logo</title><g id="Layer_2" data-name="Layer 2"><g id="Layer_1-2" data-name="Layer 1"><path class="cls-1" d="M71.61,12.75A8.57,8.57,0,0,0,69,6.45a8.93,8.93,0,0,0-12.64,0,8.57,8.57,0,0,0-2.62,6.3,8.93,8.93,0,0,0,9,9A8.64,8.64,0,0,0,69,19.09a8.63,8.63,0,0,0,2.62-6.34Zm3.83,0a12.31,12.31,0,0,1-3.75,9,12.75,12.75,0,0,1-18,0,12.43,12.43,0,0,1-3.75-9,12.36,12.36,0,0,1,3.75-9,12.75,12.75,0,0,1,18,0,12.24,12.24,0,0,1,3.75,9Z"/><path class="cls-1" d="M24.77,24.82c0,.19-.11.27-.31.27H21.37c-.2,0-.31-.08-.31-.27V18a3.2,3.2,0,0,0-1-2.39,3.26,3.26,0,0,0-2.39-1,3.4,3.4,0,0,0-3.4,3.4v6.85c0,.19-.12.27-.32.27H10.81c-.2,0-.28-.08-.28-.27V18a3.2,3.2,0,0,0-1-2.39,3.37,3.37,0,0,0-4.81,0,3.28,3.28,0,0,0-1,2.39v6.85c0,.19-.12.27-.34.27H.28C.09,25.09,0,25,0,24.82V18a7.24,7.24,0,0,1,1.91-5,6.13,6.13,0,0,1,4.68-2.08,6.21,6.21,0,0,1,5.6,3.29.25.25,0,0,0,.2.09c.11,0,.19,0,.22-.09a6.2,6.2,0,0,1,5.58-3.29,6.12,6.12,0,0,1,4.67,2.08,7.11,7.11,0,0,1,1.91,5v6.85Z"/><path class="cls-1" d="M37.54,35.53c0,.2-.08.29-.28.29H34.17a7.08,7.08,0,0,1-5-1.94,6.46,6.46,0,0,1,1.2-10.36.28.28,0,0,0,.08-.2c0-.11,0-.2-.08-.22a6.27,6.27,0,0,1-3.27-5.62,6.25,6.25,0,0,1,2.07-4.72,7,7,0,0,1,5-1.93h3.09c.2,0,.28.09.28.31v3.13c0,.19-.08.31-.28.31H34.17a3.22,3.22,0,0,0-2.4,1,3.4,3.4,0,0,0,0,4.82,3.19,3.19,0,0,0,2.4,1h3.09c.2,0,.28.11.28.31v3.12c0,.2-.08.32-.28.32H34.17a3.22,3.22,0,0,0-2.4,1,3.43,3.43,0,0,0,2.4,5.85h3.09c.2,0,.28.11.28.34v3.12Z"/><path class="cls-1" d="M50.83,24.92c0,.2-.09.28-.28.28H40.63c-.2,0-.28-.08-.28-.28V11.09c0-.22.08-.3.28-.3h3.06c.23,0,.34.08.34.31V21.24c0,.17.08.28.25.28h6.27c.19,0,.28.11.28.34v3.06Z"/><path class="cls-1" d="M81.58,15.58a3.2,3.2,0,0,0-1,2.39v6.85c0,.19-.11.27-.34.27h-3.1c-.19,0-.28-.08-.28-.27V18a7.07,7.07,0,0,1,1.92-5,6.22,6.22,0,0,1,9.29,0A7.11,7.11,0,0,1,90,18v6.85c0,.19-.08.27-.28.27h-3.1c-.22,0-.34-.08-.34-.27V18a3.2,3.2,0,0,0-1-2.39,2.36,2.36,0,0,0-3.72,0Z"/></g></g></svg>